<?xml version="1.0" standalone="no"?>
<!DOCTYPE svg PUBLIC "-//W3C//DTD SVG 20010904//EN"
 "http://www.w3.org/TR/2001/REC-SVG-20010904/DTD/svg10.dtd">
<svg version="1.0" xmlns="http://www.w3.org/2000/svg"
 width="1575.000000pt" height="1575.000000pt" viewBox="0 0 1575.000000 1575.000000"
 preserveAspectRatio="xMidYMid meet">
<metadata>
Created by potrace 1.11, written by Peter Selinger 2001-2013
</metadata>
<g transform="translate(0.000000,1575.000000) scale(0.100000,-0.100000)"
fill="#000000" stroke="none">
<path d="M8180 12489 c-1422 -50 -2770 -789 -3593 -1972 -471 -675 -747 -1445
-817 -2272 -13 -155 -13 -585 0 -740 117 -1386 827 -2622 1965 -3420 665 -467
1446 -746 2282 -816 188 -15 713 -7 888 15 998 124 1873 527 2608 1201 129
118 315 314 422 445 l58 71 -24 23 c-13 13 -375 301 -803 641 l-779 618 -46
-54 c-386 -457 -917 -767 -1497 -874 -425 -79 -857 -50 -1262 84 -397 131
-724 332 -1017 626 -403 402 -648 896 -731 1470 -13 85 -18 184 -18 340 0 312
35 531 128 810 406 1215 1638 1941 2902 1710 577 -106 1109 -417 1495 -874
l46 -54 798 634 c439 349 800 639 802 644 5 17 -192 241 -356 405 -681 677
-1542 1121 -2482 1280 -316 53 -614 71 -969 59z"/>
</g>
</svg>
